<?xml version="1.0" encoding="utf-8"?>
<!-- Generator: Adobe Illustrator 25.2.0, SVG Export Plug-In . SVG Version: 6.00 Build 0)  -->
<svg version="1.1" id="Layer_1" xmlns="http://www.w3.org/2000/svg" xmlns:xlink="http://www.w3.org/1999/xlink" x="0px" y="0px"
	 viewBox="0 0 11.38 11.39" style="enable-background:new 0 0 11.38 11.39;" xml:space="preserve">
<style type="text/css">
	.st0{fill:#929292;}
</style>
<g>
	<path class="st0" d="M1.52,11.39c-0.45,0-0.89,0-1.34,0C0,11.39,0,11.39,0,11.22c0-0.9,0-1.8,0-2.71c0-0.09,0.03-0.16,0.09-0.23
		c2.04-2.03,4.07-4.07,6.1-6.1c0.08-0.08,0.13-0.08,0.21,0c0.93,0.93,1.86,1.86,2.79,2.8c0.11,0.11,0.11,0.13,0,0.24
		c-2.03,2.03-4.05,4.05-6.08,6.08c-0.07,0.07-0.15,0.1-0.25,0.1C2.42,11.39,1.97,11.39,1.52,11.39z"/>
	<path class="st0" d="M11.38,2.73c0.01,0.18-0.06,0.33-0.18,0.45c-0.38,0.39-0.76,0.78-1.14,1.17c-0.07,0.07-0.11,0.06-0.18,0
		C8.94,3.4,7.99,2.46,7.04,1.51c-0.07-0.07-0.08-0.11,0-0.19C7.43,0.95,7.8,0.57,8.19,0.2c0.27-0.26,0.64-0.26,0.91,0
		c0.7,0.69,1.39,1.38,2.09,2.06C11.31,2.39,11.39,2.54,11.38,2.73z"/>
</g>
</svg>
