<?xml version="1.0" encoding="utf-8"?>
<!-- Generator: Adobe Illustrator 25.2.0, SVG Export Plug-In . SVG Version: 6.00 Build 0)  -->
<svg version="1.1" id="Layer_1" xmlns="http://www.w3.org/2000/svg" xmlns:xlink="http://www.w3.org/1999/xlink" x="0px" y="0px"
	 viewBox="0 0 57.9 39.7" style="enable-background:new 0 0 57.9 39.7;" xml:space="preserve">
<style type="text/css">
	.st0{fill-rule:evenodd;clip-rule:evenodd;fill:url(#SVGID_1_);}
	.st1{fill-rule:evenodd;clip-rule:evenodd;fill:#FFFFFF;filter:url(#Adobe_OpacityMaskFilter);}
	.st2{mask:url(#path-1-inside-1_523_172_2_);fill:url(#SVGID_2_);}
	.st3{fill-rule:evenodd;clip-rule:evenodd;fill:url(#SVGID_3_);}
	.st4{fill-rule:evenodd;clip-rule:evenodd;fill:#FFFFFF;filter:url(#Adobe_OpacityMaskFilter_1_);}
	.st5{mask:url(#path-3-inside-2_523_172_2_);fill:url(#SVGID_4_);}
	.st6{fill:url(#SVGID_5_);stroke:url(#SVGID_6_);}
	.st7{fill:url(#SVGID_7_);stroke:url(#SVGID_8_);}
	.st8{fill:url(#SVGID_9_);stroke:url(#SVGID_10_);}
	.st9{fill:url(#SVGID_11_);stroke:url(#SVGID_12_);}
	.st10{fill:url(#SVGID_13_);stroke:url(#SVGID_14_);}
</style>
<g>
	<g>
		
			<linearGradient id="SVGID_1_" gradientUnits="userSpaceOnUse" x1="22.8842" y1="78.4709" x2="22.8842" y2="35.2542" gradientTransform="matrix(1 0 0 -1 0 70)">
			<stop  offset="0" style="stop-color:#FFFFFF"/>
			<stop  offset="1" style="stop-color:#FFFFFF;stop-opacity:0"/>
		</linearGradient>
		<path shape-rendering="crispEdges" class="st0" d="M36.8,30.6C36.8,30.6,36.8,30.6,36.8,30.6c4.5,0,8-3.5,8-7.9
			c0-4.4-3.5-7.9-7.9-7.9c0,0-0.1,0-0.1,0v0h-2c0.1-0.5,0.1-1.1,0.1-1.7C34.8,6.4,29.4,1,22.7,1C16,1,10.6,6.4,10.6,13.1
			c0,0.6,0,1.3,0.1,1.9c-0.6-0.1-1.2-0.2-1.8-0.2c-4.4,0-7.9,3.5-7.9,7.9c0,4.4,3.5,7.9,7.9,7.9c0,0,0.1,0,0.1,0l0,0L36.8,30.6
			L36.8,30.6z"/>
		<defs>
			<filter id="Adobe_OpacityMaskFilter" filterUnits="userSpaceOnUse" x="0" y="0" width="45.8" height="31.6">
				<feColorMatrix  type="matrix" values="1 0 0 0 0  0 1 0 0 0  0 0 1 0 0  0 0 0 1 0"/>
			</filter>
		</defs>
		<mask maskUnits="userSpaceOnUse" x="0" y="0" width="45.8" height="31.6" id="path-1-inside-1_523_172_2_">
			<path class="st1" d="M36.8,30.6C36.8,30.6,36.8,30.6,36.8,30.6c4.5,0,8-3.5,8-7.9c0-4.4-3.5-7.9-7.9-7.9c0,0-0.1,0-0.1,0v0h-2
				c0.1-0.5,0.1-1.1,0.1-1.7C34.8,6.4,29.4,1,22.7,1C16,1,10.6,6.4,10.6,13.1c0,0.6,0,1.3,0.1,1.9c-0.6-0.1-1.2-0.2-1.8-0.2
				c-4.4,0-7.9,3.5-7.9,7.9c0,4.4,3.5,7.9,7.9,7.9c0,0,0.1,0,0.1,0l0,0L36.8,30.6L36.8,30.6z"/>
		</mask>
		
			<linearGradient id="SVGID_2_" gradientUnits="userSpaceOnUse" x1="22.8842" y1="69" x2="22.8842" y2="39.3919" gradientTransform="matrix(1 0 0 -1 0 70)">
			<stop  offset="0" style="stop-color:#FFFFFF"/>
			<stop  offset="1" style="stop-color:#FFFFFF;stop-opacity:0"/>
		</linearGradient>
		<path class="st2" d="M36.8,30.6l0-1c-0.3,0-0.5,0.1-0.7,0.3c-0.2,0.2-0.3,0.4-0.3,0.7H36.8z M36.8,14.8h-1c0,0.3,0.1,0.5,0.3,0.7
			c0.2,0.2,0.4,0.3,0.7,0.3L36.8,14.8z M36.8,14.8h1c0-0.6-0.4-1-1-1V14.8z M34.7,14.8l-1-0.1c0,0.3,0,0.6,0.2,0.8
			c0.2,0.2,0.5,0.3,0.8,0.3V14.8z M10.7,15l-0.2,1c0.3,0.1,0.7,0,0.9-0.2c0.2-0.2,0.4-0.6,0.3-0.9L10.7,15z M9,30.6l0.8,0.6
			c0.2-0.3,0.3-0.7,0.1-1.1c-0.2-0.3-0.5-0.6-0.9-0.6L9,30.6z M9,30.6L8.2,30C8,30.3,7.9,30.7,8.1,31c0.2,0.3,0.5,0.6,0.9,0.6V30.6z
			 M36.8,30.6v1c0.6,0,1-0.4,1-1H36.8z M36.8,31.6c0,0,0.1,0,0.1,0v-2c0,0-0.1,0-0.1,0L36.8,31.6z M36.9,31.6c4.9,0,8.9-4,8.9-8.9
			h-2c0,3.8-3.1,6.9-6.9,6.9V31.6z M45.8,22.7c0-4.9-4-8.9-8.9-8.9v2c3.8,0,6.9,3.1,6.9,6.9H45.8z M36.9,13.8c0,0-0.1,0-0.1,0l0,2
			c0,0,0.1,0,0.1,0V13.8z M35.8,14.8L35.8,14.8l2,0v0H35.8z M34.7,15.8h2v-2h-2V15.8z M35.7,14.9c0.1-0.6,0.1-1.2,0.1-1.8h-2
			c0,0.5,0,1-0.1,1.5L35.7,14.9z M35.8,13.1C35.8,5.9,30,0,22.7,0v2c6.2,0,11.1,5,11.1,11.1H35.8z M22.7,0C15.4,0,9.6,5.9,9.6,13.1
			h2C11.6,7,16.5,2,22.7,2V0z M9.6,13.1c0,0.7,0.1,1.4,0.2,2l2-0.3c-0.1-0.6-0.1-1.1-0.1-1.7H9.6z M10.9,14c-0.7-0.2-1.3-0.2-2-0.2
			v2c0.5,0,1.1,0.1,1.6,0.2L10.9,14z M8.9,13.8c-4.9,0-8.9,4-8.9,8.9h2c0-3.8,3.1-6.9,6.9-6.9V13.8z M0,22.7c0,4.9,4,8.9,8.9,8.9v-2
			c-3.8,0-6.9-3.1-6.9-6.9H0z M8.9,31.6c0,0,0.1,0,0.1,0l0-2c0,0-0.1,0-0.1,0V31.6z M9.8,31.2L9.8,31.2L8.2,30l0,0L9.8,31.2z
			 M36.8,29.6H9v2h27.8V29.6z M35.8,30.6L35.8,30.6l2,0v0H35.8z"/>
	</g>
	<g>
		
			<linearGradient id="SVGID_3_" gradientUnits="userSpaceOnUse" x1="41.0903" y1="68.3563" x2="41.0903" y2="45.1848" gradientTransform="matrix(1 0 0 -1 0 70)">
			<stop  offset="0" style="stop-color:#FFFFFF"/>
			<stop  offset="1" style="stop-color:#FFFFFF;stop-opacity:0"/>
		</linearGradient>
		<path shape-rendering="crispEdges" class="st3" d="M51.1,22.4C51.1,22.4,51.2,22.4,51.1,22.4c3.2,0,5.8-2.6,5.8-5.7
			c0-3.2-2.6-5.7-5.7-5.7c0,0,0,0-0.1,0v0h-1.5c0.1-0.4,0.1-0.8,0.1-1.2C49.7,4.9,45.8,1,41,1s-8.8,3.9-8.8,8.8c0,0.5,0,0.9,0.1,1.3
			C31.9,11,31.4,11,31,11c-3.2,0-5.7,2.6-5.7,5.7c0,3.2,2.6,5.7,5.7,5.7c0,0,0,0,0.1,0l0,0L51.1,22.4L51.1,22.4z"/>
		<defs>
			<filter id="Adobe_OpacityMaskFilter_1_" filterUnits="userSpaceOnUse" x="24.3" y="0" width="33.6" height="23.4">
				<feColorMatrix  type="matrix" values="1 0 0 0 0  0 1 0 0 0  0 0 1 0 0  0 0 0 1 0"/>
			</filter>
		</defs>
		<mask maskUnits="userSpaceOnUse" x="24.3" y="0" width="33.6" height="23.4" id="path-3-inside-2_523_172_2_">
			<path class="st4" d="M51.1,22.4C51.1,22.4,51.2,22.4,51.1,22.4c3.2,0,5.8-2.6,5.8-5.7c0-3.2-2.6-5.7-5.7-5.7c0,0,0,0-0.1,0v0
				h-1.5c0.1-0.4,0.1-0.8,0.1-1.2C49.7,4.9,45.8,1,41,1s-8.8,3.9-8.8,8.8c0,0.5,0,0.9,0.1,1.3C31.9,11,31.4,11,31,11
				c-3.2,0-5.7,2.6-5.7,5.7c0,3.2,2.6,5.7,5.7,5.7c0,0,0,0,0.1,0l0,0L51.1,22.4L51.1,22.4z"/>
		</mask>
		
			<linearGradient id="SVGID_4_" gradientUnits="userSpaceOnUse" x1="41.0903" y1="69" x2="41.0903" y2="47.6026" gradientTransform="matrix(1 0 0 -1 0 70)">
			<stop  offset="0" style="stop-color:#FFFFFF"/>
			<stop  offset="1" style="stop-color:#FFFFFF;stop-opacity:0"/>
		</linearGradient>
		<path class="st5" d="M51.1,22.4l0-1c-0.3,0-0.5,0.1-0.7,0.3c-0.2,0.2-0.3,0.4-0.3,0.7H51.1z M51.1,11h-1c0,0.3,0.1,0.5,0.3,0.7
			c0.2,0.2,0.4,0.3,0.7,0.3L51.1,11z M51.1,11h1c0-0.6-0.4-1-1-1V11z M49.6,11l-1-0.1c0,0.3,0,0.6,0.2,0.8c0.2,0.2,0.5,0.3,0.8,0.3
			V11z M32.3,11.1l-0.2,1c0.3,0.1,0.7,0,0.9-0.2c0.2-0.2,0.4-0.6,0.3-0.9L32.3,11.1z M31.1,22.4l0.8,0.6c0.2-0.3,0.3-0.7,0.1-1.1
			c-0.2-0.3-0.5-0.6-0.9-0.6L31.1,22.4z M31.1,22.4l-0.8-0.6c-0.2,0.3-0.3,0.7-0.1,1.1c0.2,0.3,0.5,0.6,0.9,0.6V22.4z M51.1,22.4v1
			c0.6,0,1-0.4,1-1H51.1z M51.1,23.4C51.1,23.4,51.2,23.4,51.1,23.4l0.1-2c0,0,0,0-0.1,0L51.1,23.4z M51.2,23.4c3.7,0,6.7-3,6.7-6.7
			h-2c0,2.6-2.1,4.7-4.7,4.7V23.4z M57.9,16.7c0-3.7-3-6.7-6.7-6.7v2c2.6,0,4.7,2.1,4.7,4.7H57.9z M51.2,10C51.2,10,51.1,10,51.2,10
			l-0.1,2c0,0,0,0,0.1,0V10z M50.1,11L50.1,11l2,0v0H50.1z M49.6,12h1.5v-2h-1.5V12z M50.6,11.1c0.1-0.4,0.1-0.9,0.1-1.3h-2
			c0,0.4,0,0.7-0.1,1.1L50.6,11.1z M50.7,9.8C50.7,4.4,46.4,0,41,0v2c4.3,0,7.8,3.5,7.8,7.8H50.7z M41,0c-5.4,0-9.8,4.4-9.8,9.8h2
			C33.2,5.5,36.7,2,41,2V0z M31.2,9.8c0,0.5,0,1,0.1,1.5l2-0.3c-0.1-0.4-0.1-0.8-0.1-1.2H31.2z M32.5,10.1C32,10,31.5,10,31,10v2
			c0.4,0,0.7,0,1.1,0.1L32.5,10.1z M31,10c-3.7,0-6.7,3-6.7,6.7h2c0-2.6,2.1-4.7,4.7-4.7V10z M24.3,16.7c0,3.7,3,6.7,6.7,6.7v-2
			c-2.6,0-4.7-2.1-4.7-4.7H24.3z M31,23.4C31,23.4,31,23.4,31,23.4l0.1-2c0,0,0,0-0.1,0V23.4z M31.8,23L31.8,23l-1.6-1.2l0,0
			L31.8,23z M51.1,21.4H31.1v2h20.1V21.4z M50.1,22.4L50.1,22.4l2,0v0H50.1z"/>
	</g>
	<g>
		
			<linearGradient id="SVGID_5_" gradientUnits="userSpaceOnUse" x1="20.2921" y1="47.0083" x2="17.6171" y2="38.2142" gradientTransform="matrix(1 0 0 -1 0 70)">
			<stop  offset="0" style="stop-color:#138EFF"/>
			<stop  offset="1" style="stop-color:#00E0FF"/>
		</linearGradient>
		
			<linearGradient id="SVGID_6_" gradientUnits="userSpaceOnUse" x1="20.2921" y1="47.0083" x2="17.6171" y2="38.2142" gradientTransform="matrix(1 0 0 -1 0 70)">
			<stop  offset="0" style="stop-color:#FFFFFF"/>
			<stop  offset="1" style="stop-color:#FFFFFF;stop-opacity:0"/>
		</linearGradient>
		<path class="st6" d="M20,26.3l0.2,3c0.1,1.3-1.2,2.4-2.5,2c-1.3-0.4-1.8-2-1-3l1.9-2.4C19.1,25.3,20,25.6,20,26.3z"/>
		
			<linearGradient id="SVGID_7_" gradientUnits="userSpaceOnUse" x1="30.8678" y1="47.0083" x2="28.1928" y2="38.2142" gradientTransform="matrix(1 0 0 -1 0 70)">
			<stop  offset="0" style="stop-color:#138EFF"/>
			<stop  offset="1" style="stop-color:#00E0FF"/>
		</linearGradient>
		
			<linearGradient id="SVGID_8_" gradientUnits="userSpaceOnUse" x1="30.8678" y1="47.0083" x2="28.1928" y2="38.2142" gradientTransform="matrix(1 0 0 -1 0 70)">
			<stop  offset="0" style="stop-color:#FFFFFF"/>
			<stop  offset="1" style="stop-color:#FFFFFF;stop-opacity:0"/>
		</linearGradient>
		<path class="st7" d="M30.6,26.3l0.2,3c0.1,1.3-1.2,2.4-2.5,2c-1.3-0.4-1.8-2-1-3l1.9-2.4C29.7,25.3,30.6,25.6,30.6,26.3z"/>
		
			<linearGradient id="SVGID_9_" gradientUnits="userSpaceOnUse" x1="41.4434" y1="47.0083" x2="38.7684" y2="38.2142" gradientTransform="matrix(1 0 0 -1 0 70)">
			<stop  offset="0" style="stop-color:#138EFF"/>
			<stop  offset="1" style="stop-color:#00E0FF"/>
		</linearGradient>
		
			<linearGradient id="SVGID_10_" gradientUnits="userSpaceOnUse" x1="41.4434" y1="47.0083" x2="38.7684" y2="38.2142" gradientTransform="matrix(1 0 0 -1 0 70)">
			<stop  offset="0" style="stop-color:#FFFFFF"/>
			<stop  offset="1" style="stop-color:#FFFFFF;stop-opacity:0"/>
		</linearGradient>
		<path class="st8" d="M41.2,26.3l0.2,3c0.1,1.3-1.2,2.4-2.5,2c-1.3-0.4-1.8-2-1-3l1.9-2.4C40.2,25.3,41.1,25.6,41.2,26.3z"/>
	</g>
	<g>
		
			<linearGradient id="SVGID_11_" gradientUnits="userSpaceOnUse" x1="23.0827" y1="38.6369" x2="20.4077" y2="29.8428" gradientTransform="matrix(1 0 0 -1 0 70)">
			<stop  offset="0" style="stop-color:#138EFF"/>
			<stop  offset="1" style="stop-color:#00E0FF"/>
		</linearGradient>
		
			<linearGradient id="SVGID_12_" gradientUnits="userSpaceOnUse" x1="23.0827" y1="38.6369" x2="20.4077" y2="29.8428" gradientTransform="matrix(1 0 0 -1 0 70)">
			<stop  offset="0" style="stop-color:#FFFFFF"/>
			<stop  offset="1" style="stop-color:#FFFFFF;stop-opacity:0"/>
		</linearGradient>
		<path class="st9" d="M22.8,34.7l0.2,3c0.1,1.3-1.2,2.4-2.5,2c-1.3-0.4-1.8-2-1-3l1.9-2.4C21.9,33.7,22.8,34,22.8,34.7z"/>
		
			<linearGradient id="SVGID_13_" gradientUnits="userSpaceOnUse" x1="32.0178" y1="38.6369" x2="29.3428" y2="29.8428" gradientTransform="matrix(1 0 0 -1 0 70)">
			<stop  offset="0" style="stop-color:#138EFF"/>
			<stop  offset="1" style="stop-color:#00E0FF"/>
		</linearGradient>
		
			<linearGradient id="SVGID_14_" gradientUnits="userSpaceOnUse" x1="32.0178" y1="38.6369" x2="29.3428" y2="29.8428" gradientTransform="matrix(1 0 0 -1 0 70)">
			<stop  offset="0" style="stop-color:#FFFFFF"/>
			<stop  offset="1" style="stop-color:#FFFFFF;stop-opacity:0"/>
		</linearGradient>
		<path class="st10" d="M31.8,34.7l0.2,3c0.1,1.3-1.2,2.4-2.5,2c-1.3-0.4-1.8-2-1-3l1.9-2.4C30.8,33.7,31.7,34,31.8,34.7z"/>
	</g>
</g>
</svg>
