<?xml version="1.0" encoding="utf-8"?>
<!-- Generator: Adobe Illustrator 25.2.0, SVG Export Plug-In . SVG Version: 6.00 Build 0)  -->
<svg version="1.1" id="Layer_1" xmlns="http://www.w3.org/2000/svg" xmlns:xlink="http://www.w3.org/1999/xlink" x="0px" y="0px"
	 viewBox="0 0 78.43 47.27" style="enable-background:new 0 0 78.43 47.27;" xml:space="preserve">
<style type="text/css">
	.st0{fill:#00BBB0;}
</style>
<g>
	<path class="st0" d="M27,47.27c-3.04,0.04-6.06-0.22-9.06-0.67c-1.61-0.24-3.22-0.46-4.79-0.93c-2.17-0.64-4.2-1.57-6.1-2.8
		c-0.89-0.58-1.77-1.18-2.57-1.88c-1.66-1.45-3.22-3-4.26-4.99c-0.24-0.45-0.3-0.88-0.06-1.35c0.19-0.38,0.47-0.49,0.82-0.24
		c0.26,0.19,0.51,0.41,0.72,0.65c1.21,1.4,2.65,2.52,4.15,3.59c1.53,1.09,3.17,2.02,4.86,2.83c1.39,0.66,2.83,1.21,4.3,1.66
		c3.9,1.21,7.88,1.63,11.96,1.39c2.77-0.17,5.49-0.67,8.15-1.43c2.33-0.67,4.59-1.56,6.79-2.57c2.79-1.29,5.36-2.93,7.83-4.75
		c1.82-1.35,3.57-2.78,5.19-4.37c1.2-1.18,2.31-2.44,3.32-3.79c1.13-1.52,2.12-3.12,2.96-4.83c1.22-2.48,2.09-5.08,2.75-7.76
		c0.23-0.92,0.33-1.86,0.66-2.75c0.09-0.25,0.21-0.49,0.34-0.72c0.48-0.81,1.54-0.87,2.16-0.14c0.62,0.72,0.57,1.58,0.43,2.41
		c-0.24,1.38-0.52,2.76-0.9,4.11c-0.52,1.82-1.2,3.58-2.04,5.28c-1.21,2.43-2.67,4.7-4.37,6.81c-1.78,2.2-3.75,4.21-5.89,6.07
		c-1.7,1.48-3.48,2.85-5.34,4.11c-1.69,1.14-3.45,2.16-5.28,3.07c-1.41,0.7-2.85,1.31-4.33,1.84c-1.84,0.65-3.72,1.15-5.65,1.51
		C31.51,47.02,29.26,47.23,27,47.27z"/>
	<path class="st0" d="M78.43,18.31c0.01,0.92-0.47,1.25-1.25,0.85c-0.79-0.4-1.4-1.04-1.95-1.71c-1.78-2.18-3.16-4.64-4.76-6.94
		c-1.03-1.48-2.06-2.96-3.09-4.44c-0.29-0.41-0.59-0.81-0.86-1.24c-0.24-0.39-0.55-0.46-0.94-0.27c-0.36,0.18-0.7,0.38-1.01,0.65
		c-1.55,1.33-2.94,2.83-4.41,4.25c-2.01,1.95-3.97,3.98-6.17,5.72c-0.51,0.4-1.07,0.69-1.73,0.74c-0.88,0.06-1.31-0.57-0.95-1.38
		c0.2-0.46,0.58-0.78,0.92-1.13c1.73-1.84,3.47-3.67,5.22-5.5c1.97-2.06,3.94-4.13,5.94-6.17c0.54-0.56,1.09-1.13,1.8-1.49
		c0.84-0.43,1.59-0.28,2.25,0.41c0.79,0.83,1.44,1.76,2.1,2.68c1.06,1.48,2.08,2.98,3.11,4.48c1.48,2.14,2.9,4.32,4.2,6.57
		c0.55,0.95,1.11,1.92,1.42,3C78.34,17.7,78.37,18.03,78.43,18.31z"/>
</g>
</svg>
