<svg width="75" height="75" viewBox="0 0 75 75" fill="none" xmlns="http://www.w3.org/2000/svg">
<g clip-path="url(#clip0_501_142)">
<rect width="75" height="75" fill="white"/>
<mask id="path-1-inside-1_501_142" fill="white">
<path d="M34.1895 18.4487C35.995 16.5679 39.005 16.5679 40.8104 18.4487C41.9336 19.6186 43.5919 20.1086 45.1704 19.736C47.6949 19.1401 50.2188 20.7977 50.7262 23.3415C51.0443 24.936 52.1791 26.2701 53.7092 26.8199C56.1593 27.7001 57.3919 30.4563 56.4532 32.8846C55.8653 34.4056 56.1083 36.1457 57.099 37.4409C58.6872 39.5172 58.2667 42.5029 56.1578 44.0474C54.8438 45.0097 54.1291 46.6125 54.2688 48.2352C54.4914 50.8215 52.5371 53.1255 49.9454 53.2725C48.3247 53.3644 46.8654 54.3156 46.1154 55.7553C44.9151 58.0595 42.0275 58.9267 39.7722 57.6368C38.3644 56.8316 36.6356 56.8316 35.2278 57.6368C32.9725 58.9267 30.0849 58.0595 28.8846 55.7553C28.1346 54.3156 26.6753 53.3644 25.0546 53.2725C22.4629 53.1255 20.5086 50.8215 20.7312 48.2352C20.8709 46.6125 20.1562 45.0097 18.8422 44.0474C16.7333 42.5029 16.3128 39.5172 17.901 37.4409C18.8917 36.1457 19.1347 34.4056 18.5468 32.8846C17.6081 30.4563 18.8407 27.7001 21.2908 26.8199C22.8209 26.2701 23.9557 24.936 24.2738 23.3415C24.7812 20.7977 27.3051 19.1401 29.8296 19.736C31.4081 20.1086 33.0664 19.6186 34.1895 18.4487Z"/>
</mask>
<path d="M34.1895 18.4487C35.995 16.5679 39.005 16.5679 40.8104 18.4487C41.9336 19.6186 43.5919 20.1086 45.1704 19.736C47.6949 19.1401 50.2188 20.7977 50.7262 23.3415C51.0443 24.936 52.1791 26.2701 53.7092 26.8199C56.1593 27.7001 57.3919 30.4563 56.4532 32.8846C55.8653 34.4056 56.1083 36.1457 57.099 37.4409C58.6872 39.5172 58.2667 42.5029 56.1578 44.0474C54.8438 45.0097 54.1291 46.6125 54.2688 48.2352C54.4914 50.8215 52.5371 53.1255 49.9454 53.2725C48.3247 53.3644 46.8654 54.3156 46.1154 55.7553C44.9151 58.0595 42.0275 58.9267 39.7722 57.6368C38.3644 56.8316 36.6356 56.8316 35.2278 57.6368C32.9725 58.9267 30.0849 58.0595 28.8846 55.7553C28.1346 54.3156 26.6753 53.3644 25.0546 53.2725C22.4629 53.1255 20.5086 50.8215 20.7312 48.2352C20.8709 46.6125 20.1562 45.0097 18.8422 44.0474C16.7333 42.5029 16.3128 39.5172 17.901 37.4409C18.8917 36.1457 19.1347 34.4056 18.5468 32.8846C17.6081 30.4563 18.8407 27.7001 21.2908 26.8199C22.8209 26.2701 23.9557 24.936 24.2738 23.3415C24.7812 20.7977 27.3051 19.1401 29.8296 19.736C31.4081 20.1086 33.0664 19.6186 34.1895 18.4487Z" fill="url(#paint0_linear_501_142)"/>
<path d="M12.5839 92.795C40.0296 99.2736 68.8364 90.7546 88.3439 70.4327L-19.9648 -33.5354C-2.7035 -51.5173 22.7865 -59.0565 47.0754 -53.323L12.5839 92.795ZM97.8902 38.0265C90.265 76.2522 52.2914 102.168 12.5839 92.795L47.0754 -53.323C2.31872 -63.8879 -40.7026 -34.6568 -49.3427 8.65654L97.8902 38.0265ZM46.6718 97.4657C73.3739 87.8724 92.5031 65.0326 97.8902 38.0265L-49.3427 8.65654C-44.5917 -15.1606 -27.7321 -35.3322 -4.09016 -43.826L46.6718 97.4657ZM88.5641 5.81785C102.571 42.0504 84.5696 83.8502 46.6718 97.4657L-4.09016 -43.826C-46.8882 -28.45 -67.3545 18.8623 -51.4706 59.9514L88.5641 5.81785ZM77.5245 83.0487C94.5238 60.8253 98.5022 31.5261 88.5641 5.81785L-51.4706 59.9514C-60.2327 37.2852 -56.7404 11.4661 -41.7226 -8.16683L77.5245 83.0487ZM63.1969 -16.5141C95.2378 6.95235 101.34 51.9147 77.5245 83.0487L-41.7226 -8.16683C-68.7142 27.1197 -61.7712 78.0534 -25.5124 104.609L63.1969 -16.5141ZM95.5216 54.672C97.8708 27.3766 86.0128 0.196074 63.1969 -16.5141L-25.5124 104.609C-45.7005 89.8234 -56.1291 65.8485 -54.0592 41.7983L95.5216 54.672ZM29.3043 -21.674C69.9192 -19.371 98.8449 16.0585 95.5216 54.672L-54.0592 41.7983C-57.8277 85.5846 -24.9935 125.622 20.8049 128.219L29.3043 -21.674ZM95.4594 21.0735C82.6036 -3.60439 57.6033 -20.0693 29.3043 -21.674L20.8049 128.219C-4.25265 126.798 -26.3344 112.236 -37.6903 90.437L95.4594 21.0735ZM-2.04073 -7.52526C33.1847 -27.672 77.233 -13.9137 95.4594 21.0735L-37.6903 90.437C-17.0632 130.033 32.7602 145.525 72.4963 122.799L-2.04073 -7.52526ZM77.0407 -7.52526C52.5422 -21.5369 22.4578 -21.5369 -2.04073 -7.52526L72.4963 122.799C50.8134 135.2 24.1866 135.2 2.50367 122.799L77.0407 -7.52526ZM-20.4594 21.0735C-2.23302 -13.9137 41.8152 -27.672 77.0407 -7.52526L2.50367 122.799C42.2398 145.525 92.0632 130.033 112.69 90.437L-20.4594 21.0735ZM45.6957 -21.674C17.3967 -20.0693 -7.6036 -3.6044 -20.4594 21.0735L112.69 90.437C101.334 112.236 79.2526 126.798 54.1951 128.219L45.6957 -21.674ZM-20.5216 54.6721C-23.8449 16.0585 5.08083 -19.371 45.6957 -21.674L54.1951 128.219C99.9934 125.622 132.828 85.5846 129.059 41.7983L-20.5216 54.6721ZM11.8031 -16.5141C-11.0128 0.196074 -22.8708 27.3766 -20.5216 54.6721L129.059 41.7983C131.129 65.8485 120.7 89.8234 100.512 104.609L11.8031 -16.5141ZM-2.52451 83.0487C-26.3398 51.9147 -20.2378 6.95236 11.8031 -16.5141L100.512 104.609C136.771 78.0534 143.714 27.1197 116.723 -8.16683L-2.52451 83.0487ZM-13.5641 5.81785C-23.5022 31.5261 -19.5238 60.8253 -2.52451 83.0487L116.723 -8.16683C131.74 11.4661 135.233 37.2852 126.471 59.9514L-13.5641 5.81785ZM28.3282 97.4657C-9.56964 83.8502 -27.5706 42.0504 -13.5641 5.81785L126.471 59.9514C142.354 18.8623 121.888 -28.45 79.0902 -43.826L28.3282 97.4657ZM-22.8902 38.0265C-17.5031 65.0326 1.62605 87.8724 28.3282 97.4657L79.0902 -43.826C102.732 -35.3322 119.592 -15.1606 124.343 8.65653L-22.8902 38.0265ZM62.4161 92.795C22.7086 102.168 -15.265 76.2522 -22.8902 38.0265L124.343 8.65653C115.703 -34.6569 72.6813 -63.8879 27.9246 -53.323L62.4161 92.795ZM-13.3439 70.4327C6.16361 90.7546 34.9704 99.2736 62.4161 92.795L27.9246 -53.323C52.2135 -59.0565 77.7035 -51.5173 94.9648 -33.5354L-13.3439 70.4327ZM94.9648 -33.5354C63.6157 -66.1933 11.3843 -66.1933 -19.9648 -33.5354L88.3439 70.4327C60.6056 99.329 14.3944 99.329 -13.3439 70.4327L94.9648 -33.5354Z" fill="#929292" fill-opacity="0.1" mask="url(#path-1-inside-1_501_142)"/>
<path d="M22.2971 37.8971C22.2971 29.2815 29.2814 22.2971 37.897 22.2971C46.5126 22.2971 53.497 29.2815 53.497 37.8971V38.2179C53.497 46.8335 46.5126 53.8179 37.897 53.8179C29.2814 53.8179 22.2971 46.8335 22.2971 38.2179V37.8971Z" fill="black" fill-opacity="0.04"/>
<path d="M28.7669 37.8971C28.7669 32.8546 32.8546 28.7669 37.897 28.7669C42.9395 28.7669 47.0272 32.8546 47.0272 37.8971V38.2179C47.0272 43.2603 42.9395 47.348 37.897 47.348C32.8546 47.348 28.7669 43.2603 28.7669 38.2179V37.8971Z" stroke="white" stroke-opacity="0.3" stroke-width="12.9397"/>
<g filter="url(#filter0_ddd_501_142)">
<path d="M35.2758 40.8895L32.2804 37.8633C32.1191 37.7 31.9002 37.6083 31.6718 37.6083C31.4435 37.6083 31.2246 37.7 31.0633 37.8633C30.7266 38.2034 30.7266 38.7529 31.0633 39.093L34.6715 42.7383C35.0082 43.0784 35.552 43.0784 35.8887 42.7383L45.0215 33.5116C45.3581 33.1715 45.3581 32.622 45.0215 32.2819C44.8602 32.1186 44.6413 32.0269 44.4129 32.0269C44.1846 32.0269 43.9656 32.1186 43.8044 32.2819L35.2758 40.8895Z" fill="white"/>
<path d="M35.2758 40.8895L32.2804 37.8633C32.1191 37.7 31.9002 37.6083 31.6718 37.6083C31.4435 37.6083 31.2246 37.7 31.0633 37.8633C30.7266 38.2034 30.7266 38.7529 31.0633 39.093L34.6715 42.7383C35.0082 43.0784 35.552 43.0784 35.8887 42.7383L45.0215 33.5116C45.3581 33.1715 45.3581 32.622 45.0215 32.2819C44.8602 32.1186 44.6413 32.0269 44.4129 32.0269C44.1846 32.0269 43.9656 32.1186 43.8044 32.2819L35.2758 40.8895Z" stroke="#FDFDFD" stroke-width="2.58793"/>
</g>
<path d="M53.5411 38.0824C53.5411 46.7955 46.5488 53.8588 37.9234 53.8588C29.298 53.8588 22.3058 46.7955 22.3058 38.0824C22.3058 29.3693 29.298 22.3059 37.9234 22.3059C46.5488 22.3059 53.5411 29.3693 53.5411 38.0824ZM25.5635 38.0824C25.5635 44.978 31.0972 50.568 37.9234 50.568C44.7496 50.568 50.2834 44.978 50.2834 38.0824C50.2834 31.1868 44.7496 25.5968 37.9234 25.5968C31.0972 25.5968 25.5635 31.1868 25.5635 38.0824Z" fill="url(#paint1_linear_501_142)" fill-opacity="0.5"/>
</g>
<defs>
<filter id="filter0_ddd_501_142" x="-165.231" y="-164.015" width="370.592" height="367.095" filterUnits="userSpaceOnUse" color-interpolation-filters="sRGB">
<feFlood flood-opacity="0" result="BackgroundImageFix"/>
<feColorMatrix in="SourceAlpha" type="matrix" values="0 0 0 0 0 0 0 0 0 0 0 0 0 0 0 0 0 0 127 0" result="hardAlpha"/>
<feOffset dx="17.9771" dy="17.9771"/>
<feGaussianBlur stdDeviation="26.9656"/>
<feColorMatrix type="matrix" values="0 0 0 0 0 0 0 0 0 0 0 0 0 0 0 0 0 0 1 0"/>
<feBlend mode="normal" in2="BackgroundImageFix" result="effect1_dropShadow_501_142"/>
<feColorMatrix in="SourceAlpha" type="matrix" values="0 0 0 0 0 0 0 0 0 0 0 0 0 0 0 0 0 0 127 0" result="hardAlpha"/>
<feOffset dx="-17.9771" dy="-17.9771"/>
<feGaussianBlur stdDeviation="88.3852"/>
<feColorMatrix type="matrix" values="0 0 0 0 0.498039 0 0 0 0 0.866667 0 0 0 0 0.32549 0 0 0 1 0"/>
<feBlend mode="normal" in2="effect1_dropShadow_501_142" result="effect2_dropShadow_501_142"/>
<feColorMatrix in="SourceAlpha" type="matrix" values="0 0 0 0 0 0 0 0 0 0 0 0 0 0 0 0 0 0 127 0" result="hardAlpha"/>
<feOffset/>
<feGaussianBlur stdDeviation="10.8968"/>
<feComposite in2="hardAlpha" operator="out"/>
<feColorMatrix type="matrix" values="0 0 0 0 0.85959 0 0 0 0 0.991856 0 0 0 0 0.578524 0 0 0 0.25 0"/>
<feBlend mode="normal" in2="effect2_dropShadow_501_142" result="effect3_dropShadow_501_142"/>
<feBlend mode="normal" in="SourceGraphic" in2="effect3_dropShadow_501_142" result="shape"/>
</filter>
<linearGradient id="paint0_linear_501_142" x1="22.9013" y1="19.214" x2="47.5836" y2="58.1187" gradientUnits="userSpaceOnUse">
<stop stop-color="#D2E0ED"/>
<stop offset="0.109389" stop-color="#BFC8E7"/>
<stop offset="0.463563" stop-color="#CBCDFC"/>
<stop offset="0.739611" stop-color="#C3ADCB"/>
<stop offset="1" stop-color="#9699B5"/>
</linearGradient>
<linearGradient id="paint1_linear_501_142" x1="37.9234" y1="22.3059" x2="37.9234" y2="53.8588" gradientUnits="userSpaceOnUse">
<stop stop-color="white"/>
<stop offset="0.0001" stop-color="white" stop-opacity="0.81"/>
<stop offset="1" stop-color="white" stop-opacity="0"/>
</linearGradient>
<clipPath id="clip0_501_142">
<rect width="75" height="75" fill="white"/>
</clipPath>
</defs>
</svg>
